REM DIRINDEX 1\2,1\3,1\4
REM DIRNAME cjc038,folder01,folder02,folder03
TITLE ""
FILE "DISC2Track35.mp3" MP3
  TRACK 01 AUDIO
    TITLE "0:"
    INDEX 01 00:00:00
  TRACK 02 AUDIO
    TITLE "4:cjc038_1958"
    INDEX 01 00:00:07
  TRACK 03 AUDIO
    TITLE "0:"
    INDEX 01 00:02:59
  TRACK 04 AUDIO
    TITLE "2:cjc038_1959"
    INDEX 01 00:04:29
  TRACK 05 AUDIO
    TITLE "0:"
    INDEX 01 00:07:23
  TRACK 06 AUDIO
    TITLE "3:cjc038_1960"
    INDEX 01 00:07:37
  TRACK 07 AUDIO
    TITLE "0:"
    INDEX 01 00:10:19
  TRACK 08 AUDIO
    TITLE "2:cjc038_1961"
    INDEX 01 00:10:74
  TRACK 09 AUDIO
    TITLE "0:"
    INDEX 01 00:13:65
  TRACK 10 AUDIO
    TITLE "3:cjc038_1962"
    INDEX 01 00:14:02
  TRACK 11 AUDIO
    TITLE "0:"
    INDEX 01 00:16:53
  TRACK 12 AUDIO
    TITLE "2:cjc038_1963"
    INDEX 01 00:17:39
  TRACK 13 AUDIO
    TITLE "0:"
    INDEX 01 00:21:04
  TRACK 14 AUDIO
    TITLE "3:cjc038_1964"
    INDEX 01 00:21:19
  TRACK 15 AUDIO
    TITLE "0:"
    INDEX 01 00:24:41
  TRACK 16 AUDIO
    TITLE "2:cjc038_1965"
    INDEX 01 00:25:25
  TRACK 17 AUDIO
    TITLE "0:"
    INDEX 01 00:29:11
  TRACK 18 AUDIO
    TITLE "3:cjc038_1966"
    INDEX 01 00:29:17
  TRACK 19 AUDIO
    TITLE "0:"
    INDEX 01 00:32:74
  TRACK 20 AUDIO
    TITLE "2:cjc038_1967"
    INDEX 01 00:33:50
  TRACK 21 AUDIO
    TITLE "0:"
    INDEX 01 00:37:63
  TRACK 22 AUDIO
    TITLE "3:cjc038_1968"
    INDEX 01 00:37:69
  TRACK 23 AUDIO
    TITLE "0:"
    INDEX 01 00:42:04
  TRACK 24 AUDIO
    TITLE "2:cjc038_1969"
    INDEX 01 00:42:55
  TRACK 25 AUDIO
    TITLE "0:"
    INDEX 01 00:45:28
  TRACK 26 AUDIO
    TITLE "3:cjc038_1970"
    INDEX 01 00:45:39
  TRACK 27 AUDIO
    TITLE "0:"
    INDEX 01 00:48:08
  TRACK 28 AUDIO
    TITLE "2:cjc038_1971"
    INDEX 01 00:49:53
  TRACK 29 AUDIO
    TITLE "0:"
    INDEX 01 00:53:66
  TRACK 30 AUDIO
    TITLE "3:cjc038_1972"
    INDEX 01 00:54:01
  TRACK 31 AUDIO
    TITLE "0:"
    INDEX 01 00:57:62
  TRACK 32 AUDIO
    TITLE "2:cjc038_1973"
    INDEX 01 00:58:52
  TRACK 33 AUDIO
    TITLE "0:"
    INDEX 01 01:00:70
  TRACK 34 AUDIO
    TITLE "3:cjc038_1974"
    INDEX 01 01:01:01
  TRACK 35 AUDIO
    TITLE "0:"
    INDEX 01 01:03:08
  TRACK 36 AUDIO
    TITLE "2:cjc038_1975"
    INDEX 01 01:03:71
  TRACK 37 AUDIO
    TITLE "0:"
    INDEX 01 01:08:35
  TRACK 38 AUDIO
    TITLE "3:cjc038_1976"
    INDEX 01 01:08:46
  TRACK 39 AUDIO
    TITLE "0:"
    INDEX 01 01:12:68
  TRACK 40 AUDIO
    TITLE "2:cjc038_1977"
    INDEX 01 01:13:55
  TRACK 41 AUDIO
    TITLE "0:"
    INDEX 01 01:17:14
  TRACK 42 AUDIO
    TITLE "3:cjc038_1978"
    INDEX 01 01:17:24
  TRACK 43 AUDIO
    TITLE "0:"
    INDEX 01 01:20:40
  TRACK 44 AUDIO
    TITLE "2:cjc038_1979"
    INDEX 01 01:21:25
  TRACK 45 AUDIO
    TITLE "0:"
    INDEX 01 01:24:14
  TRACK 46 AUDIO
    TITLE "3:cjc038_1980"
    INDEX 01 01:24:20
  TRACK 47 AUDIO
    TITLE "0:"
    INDEX 01 01:26:70
  TRACK 48 AUDIO
    TITLE "2:cjc038_1981"
    INDEX 01 01:27:51
  TRACK 49 AUDIO
    TITLE "0:"
    INDEX 01 01:31:30
  TRACK 50 AUDIO
    TITLE "3:cjc038_1982"
    INDEX 01 01:31:32
  TRACK 51 AUDIO
    TITLE "0:"
    INDEX 01 01:34:73
  TRACK 52 AUDIO
    TITLE "2:cjc038_1983"
    INDEX 01 01:35:55
  TRACK 53 AUDIO
    TITLE "0:"
    INDEX 01 01:39:47
  TRACK 54 AUDIO
    TITLE "3:cjc038_1984"
    INDEX 01 01:39:55
  TRACK 55 AUDIO
    TITLE "0:"
    INDEX 01 01:43:31
  TRACK 56 AUDIO
    TITLE "2:cjc038_1985"
    INDEX 01 01:44:17
  TRACK 57 AUDIO
    TITLE "0:"
    INDEX 01 01:48:07
  TRACK 58 AUDIO
    TITLE "3:cjc038_1986"
    INDEX 01 01:48:20
  TRACK 59 AUDIO
    TITLE "0:"
    INDEX 01 01:51:74
  TRACK 60 AUDIO
    TITLE "2:cjc038_1987"
    INDEX 01 01:52:48
  TRACK 61 AUDIO
    TITLE "0:"
    INDEX 01 01:54:68
  TRACK 62 AUDIO
    TITLE "3:cjc038_1988"
    INDEX 01 01:55:03
  TRACK 63 AUDIO
    TITLE "0:"
    INDEX 01 01:57:08
  TRACK 64 AUDIO
    TITLE "2:cjc038_1989"
    INDEX 01 01:58:70
  TRACK 65 AUDIO
    TITLE "0:"
    INDEX 01 02:03:43
  TRACK 66 AUDIO
    TITLE "3:cjc038_1990"
    INDEX 01 02:03:51
  TRACK 67 AUDIO
    TITLE "0:"
    INDEX 01 02:08:09
  TRACK 68 AUDIO
    TITLE "2:cjc038_1991"
    INDEX 01 02:08:68
  TRACK 69 AUDIO
    TITLE "0:"
    INDEX 01 02:12:19
  TRACK 70 AUDIO
    TITLE "3:cjc038_1992"
    INDEX 01 02:12:27
  TRACK 71 AUDIO
    TITLE "0:"
    INDEX 01 02:15:41
  TRACK 72 AUDIO
    TITLE "2:cjc038_1993"
    INDEX 01 02:16:24
  TRACK 73 AUDIO
    TITLE "0:"
    INDEX 01 02:20:05
  TRACK 74 AUDIO
    TITLE "3:cjc038_1994"
    INDEX 01 02:20:18
  TRACK 75 AUDIO
    TITLE "0:"
    INDEX 01 02:23:58
